{
  "accessors": [
    {
      "bufferView": 1,
      "componentType": 5126,
      "count": 65532,
      "max": [
        331.8800048828125,
        511.635009765625,
        50.450599670410156
      ],
      "min": [
        -331.8810119628906,
        -500.2829895019531,
        -255.0540008544922
      ],
      "type": "VEC3"
    },
    {
      "bufferView": 1,
      "byteOffset": 786384,
      "componentType": 5126,
      "count": 65532,
      "max": [
        1.0,
        1.0,
        1.0
      ],
      "min": [
        -0.9999961256980896,
        -0.9999987483024597,
        -1.0
      ],
      "type": "VEC3"
    },
    {
      "bufferView": 0,
      "componentType": 5125,
      "count": 365196,
      "type": "SCALAR"
    },
    {
      "bufferView": 1,
      "byteOffset": 1572768,
      "componentType": 5126,
      "count": 27257,
      "max": [
        331.8210144042969,
        511.635009765625,
        61.94580078125
      ],
      "min": [
        -331.8599853515625,
        -500.3479919433594,
        -255.0540008544922
      ],
      "type": "VEC3"
    },
    {
      "bufferView": 1,
      "byteOffset": 1899852,
      "componentType": 5126,
      "count": 27257,
      "max": [
        1.0,
        1.0,
        1.0
      ],
      "min": [
        -0.9999916553497314,
        -0.9999911189079285,
        -1.0
      ],
      "type": "VEC3"
    },
    {
      "bufferView": 0,
      "byteOffset": 1460784,
      "componentType": 5125,
      "count": 132468,
      "type": "SCALAR"
    }
  ],
  "asset": {
    "extras": {
      "author": "firstprospect (https://sketchfab.com/firstprospect)",
      "license": "CC-BY-4.0 (http://creativecommons.org/licenses/by/4.0/)",
      "source": "https://sketchfab.com/3d-models/sealed-food-pouch-1e639d03d97045f6a3b6ca1954e762bf",
      "title": "Sealed Food Pouch"
    },
    "generator": "Sketchfab-12.68.0",
    "version": "2.0"
  },
  "bufferViews": [
    {
      "buffer": 0,
      "byteLength": 1990656,
      "name": "floatBufferViews",
      "target": 34963
    },
    {
      "buffer": 0,
      "byteLength": 2226936,
      "byteOffset": 1990656,
      "byteStride": 12,
      "name": "floatBufferViews",
      "target": 34962
    }
  ],
  "buffers": [
    {
      "byteLength": 4217592,
      "uri": "scene.bin"
    }
  ],
  "materials": [
    {
      "doubleSided": true,
      "name": "pouch",
      "pbrMetallicRoughness": {
        "baseColorFactor": [
          0.93,
          0.93,
          0.93,
          1.0
        ],
        "metallicFactor": 0.71,
        "roughnessFactor": 0.2
      }
    }
  ],
  "meshes": [
    {
      "name": "Material1",
      "primitives": [
        {
          "attributes": {
            "NORMAL": 1,
            "POSITION": 0
          },
          "indices": 2,
          "material": 0,
          "mode": 4
        }
      ]
    },
    {
      "name": "Material1",
      "primitives": [
        {
          "attributes": {
            "NORMAL": 4,
            "POSITION": 3
          },
          "indices": 5,
          "material": 0,
          "mode": 4
        }
      ]
    }
  ],
  "nodes": [
    {
      "children": [
        1
      ],
      "matrix": [
        1.0,
        0.0,
        0.0,
        0.0,
        0.0,
        2.220446049250313e-16,
        -1.0,
        0.0,
        0.0,
        1.0,
        2.220446049250313e-16,
        0.0,
        0.0,
        0.0,
        0.0,
        1.0
      ],
      "name": "Sketchfab_model"
    },
    {
      "children": [
        2,
        5
      ],
      "matrix": [
        1.0,
        0.0,
        0.0,
        0.0,
        0.0,
        -4.371139006309477e-08,
        0.999999999999999,
        0.0,
        0.0,
        -0.999999999999999,
        -4.371139006309477e-08,
        0.0,
        0.0,
        0.0,
        0.0,
        1.0
      ],
      "name": "Collada visual scene group"
    },
    {
      "children": [
        3,
        4
      ],
      "name": "Plane"
    },
    {
      "mesh": 0,
      "name": "Material1"
    },
    {
      "mesh": 1,
      "name": "Material1"
    },
    {
      "children": [
        6
      ],
      "matrix": [
        0.8124266132867313,
        -1.4511360354982165e-08,
        -0.5830634596880958,
        0.0,
        -0.13249103531220793,
        0.9738405050211673,
        -0.1846098489843299,
        0.0,
        0.5678108167209843,
        0.22723263581650766,
        0.7911739414531618,
        0.0,
        2254.2900390625,
        910.0,
        3050.18994140625,
        1.0
      ],
      "name": "Camera"
    },
    {
      "name": "ID12"
    }
  ],
  "scene": 0,
  "scenes": [
    {
      "name": "Sketchfab_Scene",
      "nodes": [
        0
      ]
    }
  ]
}
